<svg width="1284" height="2778" viewBox="0 0 1284 2778" fill="none" xmlns="http://www.w3.org/2000/svg">
  <defs>
    <linearGradient id="bg" x1="0" y1="0" x2="1284" y2="2778" gradientUnits="userSpaceOnUse">
      <stop stop-color="#050506"/>
      <stop offset="0.55" stop-color="#08090D"/>
      <stop offset="1" stop-color="#050506"/>
    </linearGradient>
    <linearGradient id="purple" x1="0" y1="0" x2="1" y2="1">
      <stop stop-color="#A462FF"/>
      <stop offset="1" stop-color="#5B16ED"/>
    </linearGradient>
    <filter id="shadow" x="-30%" y="-30%" width="160%" height="160%">
      <feDropShadow dx="0" dy="24" stdDeviation="34" flood-color="#000000" flood-opacity="0.42"/>
    </filter>
    <filter id="purpleGlow" x="-40%" y="-40%" width="180%" height="180%">
      <feDropShadow dx="0" dy="14" stdDeviation="22" flood-color="#7B2CFF" flood-opacity="0.35"/>
    </filter>
    <style>
      .font { font-family: -apple-system, BlinkMacSystemFont, "Inter", "Segoe UI", sans-serif; }
      .h1 { fill:#F7F4FF; font-size:58px; font-weight:950; letter-spacing:-1.5px; }
      .tab { fill:#F7F4FF; font-size:25px; font-weight:900; }
      .muted { fill:#8F94A3; font-size:25px; font-weight:800; }
      .tiny { fill:#818696; font-size:19px; font-weight:800; }
      .purple { fill:#A462FF; }
      .cardTitle { fill:#F7F4FF; font-size:42px; font-weight:950; letter-spacing:-0.9px; }
      .body { fill:#D5D7E2; font-size:31px; font-weight:850; }
      .label { fill:#A462FF; font-size:22px; font-weight:950; letter-spacing:5px; }
    </style>
  </defs>

  <rect width="1284" height="2778" fill="url(#bg)"/>
  <rect x="0" y="0" width="1284" height="2778" fill="#050506"/>
  <circle cx="1080" cy="230" r="300" fill="#6B1FF4" opacity="0.09"/>

  <!-- iOS status -->
  <text x="74" y="96" class="font" fill="#F7F4FF" font-size="46" font-weight="800">12:04</text>
  <text x="1080" y="96" class="font" fill="#F7F4FF" font-size="44" font-weight="800">5G</text>
  <rect x="1164" y="58" width="68" height="38" rx="12" fill="#F7F4FF"/>
  <text x="1176" y="87" class="font" fill="#050506" font-size="28" font-weight="900">74</text>

  <!-- Home header -->
  <g transform="translate(48 155)">
    <text x="0" y="72" class="font h1">Accueil</text>
    <rect x="868" y="8" width="96" height="96" rx="48" fill="#121721"/>
    <circle cx="916" cy="56" r="20" fill="url(#purple)" filter="url(#purpleGlow)"/>
    <rect x="990" y="8" width="96" height="96" rx="48" fill="#121721"/>
    <path d="M1038 35 C1024 47 1022 71 1038 82 C1054 71 1052 47 1038 35Z" stroke="#F7F4FF" stroke-width="5" stroke-linejoin="round"/>
  </g>

  <!-- Feed switch -->
  <g transform="translate(278 292)">
    <rect width="728" height="74" rx="37" fill="#0C0F15"/>
    <rect x="10" y="9" width="350" height="56" rx="28" fill="#151923"/>
    <text x="101" y="47" class="font tab">Pour toi</text>
    <text x="456" y="47" class="font muted">Abonnements</text>
  </g>

  <!-- Notes bubbles rail -->
  <g transform="translate(48 430)">
    <text x="0" y="28" class="font label">NOTES</text>
    <text x="0" y="74" class="font" fill="#F7F4FF" font-size="42" font-weight="950">Ce que les gens écoutent</text>

    <!-- add bubble -->
    <g transform="translate(0 118)">
      <circle cx="72" cy="72" r="70" fill="rgba(151,89,255,0.15)" stroke="rgba(151,89,255,0.45)" stroke-width="3"/>
      <line x1="72" y1="48" x2="72" y2="96" stroke="#F7F4FF" stroke-width="7" stroke-linecap="round"/>
      <line x1="48" y1="72" x2="96" y2="72" stroke="#F7F4FF" stroke-width="7" stroke-linecap="round"/>
      <text x="20" y="176" class="font tiny">Ta note</text>
    </g>

    <!-- bubble 1 selected -->
    <g transform="translate(180 103)">
      <circle cx="86" cy="86" r="82" fill="#0A0B10" stroke="url(#purple)" stroke-width="5" filter="url(#purpleGlow)"/>
      <circle cx="86" cy="86" r="64" fill="#151923"/>
      <text x="58" y="94" class="font" fill="#A462FF" font-size="24" font-weight="950">LZ</text>
      <rect x="126" y="26" width="54" height="38" rx="19" fill="#321A4F"/>
      <path d="M153 52 C144 45 142 38 146 34 C150 31 153 34 153 34 C153 34 157 31 160 34 C165 38 162 45 153 52Z" fill="#FF5578"/>
      <rect x="34" y="134" width="104" height="36" rx="18" fill="#151923"/>
      <text x="53" y="158" class="font tiny">Stromae</text>
    </g>

    <!-- bubble 2 -->
    <g transform="translate(390 118)">
      <circle cx="72" cy="72" r="70" fill="#10131B"/>
      <circle cx="72" cy="72" r="50" fill="#08090D" stroke="#232838" stroke-width="3"/>
      <text x="46" y="81" class="font" fill="#F7F4FF" font-size="25" font-weight="950">AM</text>
      <rect x="24" y="126" width="96" height="34" rx="17" fill="#151923"/>
      <text x="39" y="149" class="font tiny">Damso</text>
    </g>

    <!-- bubble 3 -->
    <g transform="translate(560 118)">
      <circle cx="72" cy="72" r="70" fill="#10131B"/>
      <circle cx="72" cy="72" r="50" fill="#08090D" stroke="#232838" stroke-width="3"/>
      <text x="48" y="81" class="font" fill="#A462FF" font-size="25" font-weight="950">TB</text>
      <rect x="18" y="126" width="108" height="34" rx="17" fill="#151923"/>
      <text x="34" y="149" class="font tiny">Angèle</text>
    </g>

    <!-- bubble 4 -->
    <g transform="translate(730 118)">
      <circle cx="72" cy="72" r="70" fill="#10131B"/>
      <circle cx="72" cy="72" r="50" fill="#08090D" stroke="#232838" stroke-width="3"/>
      <text x="49" y="81" class="font" fill="#F7F4FF" font-size="25" font-weight="950">NO</text>
      <rect x="8" y="126" width="128" height="34" rx="17" fill="#151923"/>
      <text x="24" y="149" class="font tiny">Get Lucky</text>
    </g>

    <!-- bubble 5 -->
    <g transform="translate(910 118)">
      <circle cx="72" cy="72" r="70" fill="#10131B"/>
      <circle cx="72" cy="72" r="50" fill="#08090D" stroke="#232838" stroke-width="3"/>
      <text x="48" y="81" class="font" fill="#F7F4FF" font-size="25" font-weight="950">SK</text>
      <rect x="12" y="126" width="120" height="34" rx="17" fill="#151923"/>
      <text x="28" y="149" class="font tiny">Aya</text>
    </g>
  </g>

  <!-- Opened bubble sheet preview -->
  <g transform="translate(48 740)" filter="url(#shadow)">
    <rect width="1188" height="332" rx="52" fill="#0D1017"/>
    <rect x="40" y="38" width="1108" height="1" fill="#1F2431"/>
    <g transform="translate(40 72)">
      <circle cx="45" cy="45" r="45" fill="#090A0F" stroke="#292F42" stroke-width="3"/>
      <text x="25" y="56" class="font" fill="#A462FF" font-size="24" font-weight="950">LZ</text>
      <text x="112" y="34" class="font" fill="#F7F4FF" font-size="32" font-weight="950">La zone</text>
      <text x="112" y="72" class="font muted">note du moment</text>
      <rect x="970" y="10" width="104" height="62" rx="31" fill="#171B25"/>
      <path d="M1015 50 C1001 39 998 29 1005 23 C1011 18 1015 23 1015 23 C1015 23 1021 18 1027 23 C1034 29 1030 39 1015 50Z" fill="#FF5578"/>
      <text x="1042" y="46" class="font" fill="#F7F4FF" font-size="23" font-weight="900">4</text>
    </g>
    <text x="40" y="205" class="font" fill="#F7F4FF" font-size="40" font-weight="950">Le genre de morceau que l’on oublie jamais.</text>
    <g transform="translate(40 244)">
      <rect width="1108" height="62" rx="31" fill="rgba(151,89,255,0.10)"/>
      <rect x="22" y="16" width="8" height="30" rx="4" fill="#A462FF"/>
      <rect x="38" y="8" width="8" height="46" rx="4" fill="#A462FF"/>
      <rect x="54" y="18" width="8" height="28" rx="4" fill="#A462FF"/>
      <text x="84" y="40" class="font" fill="#F7F4FF" font-size="24" font-weight="900">Alors on danse</text>
      <text x="314" y="40" class="font muted">Stromae</text>
      <circle cx="1058" cy="31" r="24" fill="url(#purple)"/>
      <polygon points="1052,19 1052,43 1072,31" fill="#F7F4FF"/>
    </g>
  </g>

  <!-- Feed post below -->
  <g transform="translate(48 1138)" filter="url(#shadow)">
    <rect width="1188" height="660" rx="54" fill="#10131B"/>
    <g transform="translate(44 44)">
      <circle cx="48" cy="48" r="48" fill="#08090D" stroke="#252A38" stroke-width="3"/>
      <text x="27" y="58" class="font" fill="#A462FF" font-size="24" font-weight="950">TB</text>
      <text x="124" y="36" class="font" fill="#F7F4FF" font-size="34" font-weight="950">TrueBPM</text>
      <text x="124" y="76" class="font muted">à l’instant</text>
    </g>
    <rect x="44" y="170" width="1100" height="230" rx="42" fill="#080A0F"/>
    <text x="84" y="240" class="font label">SON</text>
    <text x="84" y="304" class="font cardTitle">Alors on danse</text>
    <text x="84" y="352" class="font muted">Stromae</text>
    <g transform="translate(44 442)">
      <text x="0" y="40" class="font label">AVIS</text>
      <text x="0" y="95" class="font body">Le genre de morceau que l’on oublie jamais !</text>
      <g transform="translate(792 0)">
        <text x="0" y="66" class="font" fill="#F7F4FF" font-size="76" font-weight="950">5</text>
        <text x="74" y="66" class="font purple" font-size="42" font-weight="950">/5</text>
      </g>
    </g>
    <path d="M44 570 H1144" stroke="#232838" stroke-width="2"/>
    <g transform="translate(44 600)">
      <rect width="164" height="70" rx="35" fill="#221728"/>
      <path d="M56 44 C38 31 36 18 45 12 C52 7 57 13 57 13 C57 13 63 7 70 12 C80 18 75 31 56 44Z" fill="#FF5578"/>
      <text x="90" y="44" class="font" fill="#F7F4FF" font-size="26" font-weight="950">1</text>
      <rect x="190" width="164" height="70" rx="35" fill="#080A0F"/>
      <text x="250" y="45" class="font muted">1</text>
      <rect x="936" width="164" height="70" rx="35" fill="#080A0F"/>
      <text x="997" y="45" class="font muted">↗</text>
    </g>
  </g>

  <!-- bottom nav -->
  <g transform="translate(0 2580)">
    <rect width="1284" height="198" rx="58" fill="#090B0F"/>
    <text x="105" y="132" class="font muted">Accueil</text>
    <text x="356" y="132" class="font muted">Recherche</text>
    <circle cx="642" cy="78" r="56" fill="url(#purple)" filter="url(#purpleGlow)"/>
    <line x1="642" y1="48" x2="642" y2="108" stroke="#F7F4FF" stroke-width="6" stroke-linecap="round"/>
    <line x1="612" y1="78" x2="672" y2="78" stroke="#F7F4FF" stroke-width="6" stroke-linecap="round"/>
    <text x="837" y="132" class="font muted">Messages</text>
    <text x="1110" y="132" class="font" fill="#F7F4FF" font-size="25" font-weight="900">Profil</text>
  </g>
</svg>
